<?xml version="1.0" encoding="utf-8"?>
<!-- Generator: Adobe Illustrator 23.0.3, SVG Export Plug-In . SVG Version: 6.00 Build 0)  -->
<svg version="1.1" id="Icons" xmlns="http://www.w3.org/2000/svg" xmlns:xlink="http://www.w3.org/1999/xlink" x="0px" y="0px"
	 viewBox="0 0 32 32" style="enable-background:new 0 0 32 32;" xml:space="preserve">
<style type="text/css">
	.st0{fill:none;stroke:#000000;stroke-width:2;stroke-linecap:round;stroke-linejoin:round;stroke-miterlimit:10;}
	.st1{fill:none;stroke:#000000;stroke-width:2;stroke-linejoin:round;stroke-miterlimit:10;}
</style>
<path class="st0" d="M14.7,16c-1.6-1.1-2.7-2.9-2.7-5c0-3.5,3.1-6.4,6.7-6c2.6,0.3,4.8,2.4,5.2,5.1c0.4,2.7-1,5-3.1,6.2
	c2.6,0.8,4.5,3.4,4.1,6.4c-0.3,3.1-3.1,5.3-6.2,5.3L12,28c-3.3,0-6-2-7-6v-8l0.8,0.6C7.9,16.2,10.4,17,13,17h0"/>
<line class="st0" x1="20" y1="9" x2="20" y2="12"/>
<path class="st0" d="M23.2,14c1.8-0.1,3.5-0.9,4.6-2.4L29,10h-5"/>
<path class="st0" d="M19,22c0,1.7-1.3,3-3,3c-4,0-5-3-5-3s3.3-3,5-3S19,20.3,19,22z"/>
</svg>
